<svg xmlns="http://www.w3.org/2000/svg" xmlns:svg="http://www.w3.org/2000/svg" id="svg4268" width="1058.203" height="1058.203" version="1.1" viewBox="0 0 1058.203 1058.203"><metadata id="metadata4274"/><defs id="defs4272"><marker style="overflow:visible" id="marker5662" orient="auto" refX="0" refY="0"><path style="fill-rule:evenodd;stroke:#464646;stroke-width:1pt;stroke-opacity:1;fill:#464646;fill-opacity:.99215686" id="path5664" d="M 5.77,0.0 L -2.88,5.0 L -2.88,-5.0 L 5.77,0.0 z" transform="scale(0.4)"/></marker><marker id="TriangleOutM" orient="auto" refX="0" refY="0" style="overflow:visible"><path id="path5515" d="M 5.77,0.0 L -2.88,5.0 L -2.88,-5.0 L 5.77,0.0 z" transform="scale(0.4)" style="fill-rule:evenodd;stroke:#464646;stroke-width:1pt;stroke-opacity:1;fill:#464646;fill-opacity:.99215686"/></marker><marker style="overflow:visible" id="marker5648" orient="auto" refX="0" refY="0"><path style="fill-rule:evenodd;stroke:#464646;stroke-width:1pt;stroke-opacity:1;fill:#464646;fill-opacity:.99215686" id="path5650" d="M 5.77,0.0 L -2.88,5.0 L -2.88,-5.0 L 5.77,0.0 z" transform="scale(-0.4)"/></marker><marker id="TriangleInM" orient="auto" refX="0" refY="0" style="overflow:visible"><path id="path5506" d="M 5.77,0.0 L -2.88,5.0 L -2.88,-5.0 L 5.77,0.0 z" transform="scale(-0.4)" style="fill-rule:evenodd;stroke:#464646;stroke-width:1pt;stroke-opacity:1;fill:#464646;fill-opacity:.99215686"/></marker><marker style="overflow:visible" id="marker5638" orient="auto" refX="0" refY="0"><path style="fill-rule:evenodd;stroke:#000;stroke-width:1pt;stroke-opacity:1;fill:#000;fill-opacity:1" id="path5640" d="M 5.77,0.0 L -2.88,5.0 L -2.88,-5.0 L 5.77,0.0 z" transform="scale(-0.8)"/></marker><marker style="overflow:visible" id="marker5628" orient="auto" refX="0" refY="0"><path style="fill-rule:evenodd;stroke:#000;stroke-width:1pt;stroke-opacity:1;fill:#000;fill-opacity:1" id="path5630" d="M -2.5,-1.0 C -2.5,1.7600000 -4.7400000,4.0 -7.5,4.0 C -10.260000,4.0 -12.5,1.7600000 -12.5,-1.0 C -12.5,-3.7600000 -10.260000,-6.0 -7.5,-6.0 C -4.7400000,-6.0 -2.5,-3.7600000 -2.5,-1.0 z" transform="scale(0.4) translate(7.4, 1)"/></marker><marker id="marker5182" orient="auto" refX="0" refY="0" style="overflow:visible"><path id="path5184" d="M 8.7185878,4.0337352 -2.2072895,0.01601326 8.7185884,-4.0017078 c -1.7454984,2.3720609 -1.7354408,5.6174519 -6e-7,8.035443 z" transform="scale(0.6,0.6)" style="fill:#464646;fill-opacity:.9901962;fill-rule:evenodd;stroke:#464646;stroke-width:.625;stroke-linejoin:round;stroke-opacity:.9901962"/></marker><marker style="overflow:visible" id="marker4314" orient="auto" refX="0" refY="0"><path style="fill:#464646;fill-opacity:.9901962;fill-rule:evenodd;stroke:#464646;stroke-width:.625;stroke-linejoin:round;stroke-opacity:.9901962" id="path4316" d="M 8.7185878,4.0337352 -2.2072895,0.01601326 8.7185884,-4.0017078 c -1.7454984,2.3720609 -1.7354408,5.6174519 -6e-7,8.035443 z" transform="scale(0.6,0.6)"/></marker><marker id="Arrow1Lstart" orient="auto" refX="0" refY="0" style="overflow:visible"><path id="path4828" d="M 0,0 5,-5 -12.5,0 5,5 0,0 Z" transform="matrix(0.8,0,0,0.8,10,0)" style="fill-rule:evenodd;stroke:#000;stroke-width:1pt"/></marker><marker style="overflow:visible" id="marker5138" orient="auto" refX="0" refY="0"><path style="fill:#464646;fill-opacity:.9901962;fill-rule:evenodd;stroke:#464646;stroke-width:.625;stroke-linejoin:round;stroke-opacity:.9901962" id="path5140" d="M 8.7185878,4.0337352 -2.2072895,0.01601326 8.7185884,-4.0017078 c -1.7454984,2.3720609 -1.7354408,5.6174519 -6e-7,8.035443 z" transform="scale(0.6,0.6)"/></marker><marker id="Arrow2Lstart" orient="auto" refX="0" refY="0" style="overflow:visible"><path id="path4846" d="M 8.7185878,4.0337352 -2.2072895,0.01601326 8.7185884,-4.0017078 c -1.7454984,2.3720609 -1.7354408,5.6174519 -6e-7,8.035443 z" transform="matrix(1.1,0,0,1.1,1.1,0)" style="fill:#000;fill-opacity:1;fill-rule:evenodd;stroke:#000;stroke-width:.625;stroke-linejoin:round;stroke-opacity:1"/></marker><marker style="overflow:visible" id="marker5182-7" orient="auto" refX="0" refY="0"><path style="fill:#464646;fill-opacity:.9901962;fill-rule:evenodd;stroke:#464646;stroke-width:.625;stroke-linejoin:round;stroke-opacity:.9901962" id="path5184-6" d="M 8.7185878,4.0337352 -2.2072895,0.01601326 8.7185884,-4.0017078 c -1.7454984,2.3720609 -1.7354408,5.6174519 -6e-7,8.035443 z" transform="scale(0.6,0.6)"/></marker><marker id="marker4314-6" orient="auto" refX="0" refY="0" style="overflow:visible"><path id="path4316-6" d="M 8.7185878,4.0337352 -2.2072895,0.01601326 8.7185884,-4.0017078 c -1.7454984,2.3720609 -1.7354408,5.6174519 -6e-7,8.035443 z" transform="scale(0.6,0.6)" style="fill:#464646;fill-opacity:.9901962;fill-rule:evenodd;stroke:#464646;stroke-width:.625;stroke-linejoin:round;stroke-opacity:.9901962"/></marker><marker style="overflow:visible" id="Arrow1Lstart-5" orient="auto" refX="0" refY="0"><path style="fill-rule:evenodd;stroke:#000;stroke-width:1pt" id="path4828-5" d="M 0,0 5,-5 -12.5,0 5,5 0,0 Z" transform="matrix(0.8,0,0,0.8,10,0)"/></marker><marker id="marker5138-2" orient="auto" refX="0" refY="0" style="overflow:visible"><path id="path5140-6" d="M 8.7185878,4.0337352 -2.2072895,0.01601326 8.7185884,-4.0017078 c -1.7454984,2.3720609 -1.7354408,5.6174519 -6e-7,8.035443 z" transform="scale(0.6,0.6)" style="fill:#464646;fill-opacity:.9901962;fill-rule:evenodd;stroke:#464646;stroke-width:.625;stroke-linejoin:round;stroke-opacity:.9901962"/></marker><marker style="overflow:visible" id="Arrow2Lstart-8" orient="auto" refX="0" refY="0"><path style="fill:#000;fill-opacity:1;fill-rule:evenodd;stroke:#000;stroke-width:.625;stroke-linejoin:round;stroke-opacity:1" id="path4846-0" d="M 8.7185878,4.0337352 -2.2072895,0.01601326 8.7185884,-4.0017078 c -1.7454984,2.3720609 -1.7354408,5.6174519 -6e-7,8.035443 z" transform="matrix(1.1,0,0,1.1,1.1,0)"/></marker></defs><rect style="fill:none;stroke:#464646;stroke-width:38.2483139;stroke-linecap:butt;stroke-miterlimit:4;stroke-dasharray:none;stroke-opacity:.9901962" id="rect4278" width="1019.955" height="1019.955" x="19.124" y="19.124"/><g id="g6140" transform="translate(-2,0)"><path id="path5362" d="m 104.1017,186.10165 160,0" style="fill:#464646;fill-opacity:.99215686;fill-rule:evenodd;stroke:#464646;stroke-width:15;stroke-linecap:round;stroke-linejoin:miter;stroke-miterlimit:4;stroke-dasharray:none;stroke-opacity:1;marker-start:url(#TriangleInM);marker-end:url(#TriangleOutM)"/><path id="path5364" d="m 184.1017,106.10165 0,160" style="fill:#464646;fill-opacity:.99215686;fill-rule:evenodd;stroke:#464646;stroke-width:15;stroke-linecap:round;stroke-linejoin:miter;stroke-miterlimit:4;stroke-dasharray:none;stroke-opacity:1;marker-start:url(#marker5648);marker-end:url(#marker5662)"/></g><g id="g6144" transform="translate(680,0)"><path style="fill:#464646;fill-opacity:.99215686;fill-rule:evenodd;stroke:#464646;stroke-width:15;stroke-linecap:round;stroke-linejoin:miter;stroke-miterlimit:4;stroke-dasharray:none;stroke-opacity:1;marker-start:url(#TriangleInM);marker-end:url(#TriangleOutM)" id="path6146" d="m 104.1017,186.10165 160,0"/><path style="fill:#464646;fill-opacity:.99215686;fill-rule:evenodd;stroke:#464646;stroke-width:15;stroke-linecap:round;stroke-linejoin:miter;stroke-miterlimit:4;stroke-dasharray:none;stroke-opacity:1;marker-start:url(#marker5648);marker-end:url(#marker5662)" id="path6148" d="m 184.1017,106.10165 0,160"/></g><g id="g6150" transform="translate(680,700)"><path id="path6152" d="m 104.1017,186.10165 160,0" style="fill:#464646;fill-opacity:.99215686;fill-rule:evenodd;stroke:#464646;stroke-width:15;stroke-linecap:round;stroke-linejoin:miter;stroke-miterlimit:4;stroke-dasharray:none;stroke-opacity:1;marker-start:url(#TriangleInM);marker-end:url(#TriangleOutM)"/><path id="path6154" d="m 184.1017,106.10165 0,160" style="fill:#464646;fill-opacity:.99215686;fill-rule:evenodd;stroke:#464646;stroke-width:15;stroke-linecap:round;stroke-linejoin:miter;stroke-miterlimit:4;stroke-dasharray:none;stroke-opacity:1;marker-start:url(#marker5648);marker-end:url(#marker5662)"/></g><g id="g6156" transform="translate(-2,700)"><path style="fill:#464646;fill-opacity:.99215686;fill-rule:evenodd;stroke:#464646;stroke-width:15;stroke-linecap:round;stroke-linejoin:miter;stroke-miterlimit:4;stroke-dasharray:none;stroke-opacity:1;marker-start:url(#TriangleInM);marker-end:url(#TriangleOutM)" id="path6158" d="m 104.1017,186.10165 160,0"/><path style="fill:#464646;fill-opacity:.99215686;fill-rule:evenodd;stroke:#464646;stroke-width:15;stroke-linecap:round;stroke-linejoin:miter;stroke-miterlimit:4;stroke-dasharray:none;stroke-opacity:1;marker-start:url(#marker5648);marker-end:url(#marker5662)" id="path6160" d="m 184.1017,106.10165 0,160"/></g><g id="g4216" transform="translate(-1532.4915,-1035.6441)"><text id="text5234-3" x="1797.429" y="1707.819" xml:space="preserve" style="font-style:normal;font-weight:400;font-size:611.465271px;line-height:125%;font-family:sans-serif;letter-spacing:0;word-spacing:0;fill:#464646;fill-opacity:1;stroke:none;stroke-width:1px;stroke-linecap:butt;stroke-linejoin:miter;stroke-opacity:1"><tspan style="font-style:normal;font-variant:normal;font-weight:400;font-stretch:normal;font-family:LilyUPC;-inkscape-font-specification:LilyUPC" id="tspan5236-6" x="1797.429" y="1707.819">UV</tspan></text></g></svg>