<svg xmlns="http://www.w3.org/2000/svg" xmlns:svg="http://www.w3.org/2000/svg" id="svg4268" width="166" height="166" version="1.1" viewBox="0 0 166 166"><metadata id="metadata4274"/><defs id="defs4272"><marker id="Arrow1Lstart" orient="auto" refX="0" refY="0" style="overflow:visible"><path id="path4828" d="M 0,0 5,-5 -12.5,0 5,5 0,0 Z" transform="matrix(0.8,0,0,0.8,10,0)" style="fill-rule:evenodd;stroke:#000;stroke-width:1pt"/></marker><marker style="overflow:visible" id="marker5138" orient="auto" refX="0" refY="0"><path style="fill:#464646;fill-opacity:.99019614;fill-rule:evenodd;stroke:#464646;stroke-width:.625;stroke-linejoin:round;stroke-opacity:.99019614" id="path5140" d="M 8.7185878,4.0337352 -2.2072895,0.01601326 8.7185884,-4.0017078 c -1.7454984,2.3720609 -1.7354408,5.6174519 -6e-7,8.035443 z" transform="scale(0.6,0.6)"/></marker><marker id="Arrow2Mstart" orient="auto" refX="0" refY="0" style="overflow:visible"><path id="path4852" d="M 8.7185878,4.0337352 -2.2072895,0.01601326 8.7185884,-4.0017078 c -1.7454984,2.3720609 -1.7354408,5.6174519 -6e-7,8.035443 z" transform="scale(0.6,0.6)" style="fill:#464646;fill-opacity:.99019614;fill-rule:evenodd;stroke:#464646;stroke-width:.625;stroke-linejoin:round;stroke-opacity:.99019614"/></marker><marker id="Arrow2Lstart" orient="auto" refX="0" refY="0" style="overflow:visible"><path id="path4846" d="M 8.7185878,4.0337352 -2.2072895,0.01601326 8.7185884,-4.0017078 c -1.7454984,2.3720609 -1.7354408,5.6174519 -6e-7,8.035443 z" transform="matrix(1.1,0,0,1.1,1.1,0)" style="fill:#000;fill-opacity:1;fill-rule:evenodd;stroke:#000;stroke-width:.625;stroke-linejoin:round;stroke-opacity:1"/></marker></defs><rect style="fill:none;stroke:#464646;stroke-width:6;stroke-linecap:butt;stroke-miterlimit:4;stroke-dasharray:none;stroke-opacity:.99019605" id="rect4278" width="160" height="160" x="3" y="3"/><rect style="fill:#686868;fill-opacity:.36470588;stroke:#464646;stroke-width:6;stroke-linecap:butt;stroke-miterlimit:4;stroke-dasharray:none;stroke-opacity:.99019608" id="rect4280" width="56.949" height="56.949" x="-143.175" y="-8.945"/><path style="fill:none;fill-rule:evenodd;stroke:#464646;stroke-width:5;stroke-linecap:butt;stroke-linejoin:miter;stroke-miterlimit:4;stroke-dasharray:none;stroke-opacity:.99019608;marker-start:url(#Arrow2Mstart)" id="path4282" d="m -105.23202,104.99327 -41.22792,0"/><path id="path5136" d="m -105.23202,159.16484 0,-45.54247" style="fill:none;fill-rule:evenodd;stroke:#464646;stroke-width:5;stroke-linecap:butt;stroke-linejoin:miter;stroke-miterlimit:4;stroke-dasharray:none;stroke-opacity:.99019608;marker-start:url(#marker5138)"/><g id="g4258" transform="translate(-0.96567272,-0.90251919)"><rect id="rect4240" width="63.759" height="50.336" x="36.449" y="46.219" style="fill:#464646;fill-opacity:.99215686;fill-rule:nonzero;stroke:#464646;stroke-width:6.0999999;stroke-linecap:round;stroke-linejoin:round;stroke-miterlimit:4;stroke-dasharray:none;stroke-opacity:.99215686"/><path id="path4248" d="m 93.811603,71.386883 39.010727,24.389197 0.0599,-49.677253 z" style="fill:#464646;fill-opacity:.99215686;fill-rule:evenodd;stroke:#464646;stroke-width:3.29999995;stroke-linecap:round;stroke-linejoin:round;stroke-miterlimit:4;stroke-dasharray:none;stroke-opacity:.99215686"/><path id="path4256" d="M 95,121 70,96 45,121" style="fill:none;fill-rule:evenodd;stroke:#464646;stroke-width:7.19999981;stroke-linecap:round;stroke-linejoin:miter;stroke-miterlimit:4;stroke-dasharray:none;stroke-opacity:.99215686"/></g></svg>