<svg xmlns="http://www.w3.org/2000/svg" xmlns:svg="http://www.w3.org/2000/svg" id="svg4268" width="166" height="166" version="1.1" viewBox="0 0 166 166"><metadata id="metadata4274"/><defs id="defs4272"><marker id="Arrow1Lstart" orient="auto" refX="0" refY="0" style="overflow:visible"><path id="path4828" d="M 0,0 5,-5 -12.5,0 5,5 0,0 Z" transform="matrix(0.8,0,0,0.8,10,0)" style="fill-rule:evenodd;stroke:#000;stroke-width:1pt"/></marker><marker style="overflow:visible" id="marker5138" orient="auto" refX="0" refY="0"><path style="fill:#464646;fill-opacity:.99019608;fill-rule:evenodd;stroke:#464646;stroke-width:.625;stroke-linejoin:round;stroke-opacity:.99019608" id="path5140" d="M 8.7185878,4.0337352 -2.2072895,0.01601326 8.7185884,-4.0017078 c -1.7454984,2.3720609 -1.7354408,5.6174519 -6e-7,8.035443 z" transform="scale(0.6,0.6)"/></marker><marker id="Arrow2Mstart" orient="auto" refX="0" refY="0" style="overflow:visible"><path id="path4852" d="M 8.7185878,4.0337352 -2.2072895,0.01601326 8.7185884,-4.0017078 c -1.7454984,2.3720609 -1.7354408,5.6174519 -6e-7,8.035443 z" transform="scale(0.6,0.6)" style="fill:#464646;fill-opacity:.99019608;fill-rule:evenodd;stroke:#464646;stroke-width:.625;stroke-linejoin:round;stroke-opacity:.99019608"/></marker><marker id="Arrow2Lstart" orient="auto" refX="0" refY="0" style="overflow:visible"><path id="path4846" d="M 8.7185878,4.0337352 -2.2072895,0.01601326 8.7185884,-4.0017078 c -1.7454984,2.3720609 -1.7354408,5.6174519 -6e-7,8.035443 z" transform="matrix(1.1,0,0,1.1,1.1,0)" style="fill:#000;fill-opacity:1;fill-rule:evenodd;stroke:#000;stroke-width:.625;stroke-linejoin:round;stroke-opacity:1"/></marker></defs><rect style="fill:none;stroke:#464646;stroke-width:6;stroke-linecap:butt;stroke-miterlimit:4;stroke-dasharray:none;stroke-opacity:.99019605" id="rect4278" width="160" height="160" x="3" y="3"/><rect style="fill:#686868;fill-opacity:.36470588;stroke:#464646;stroke-width:6;stroke-linecap:butt;stroke-miterlimit:4;stroke-dasharray:none;stroke-opacity:.99019605" id="rect4280" width="56.949" height="56.949" x="26.051" y="26.051"/><path style="fill:none;fill-rule:evenodd;stroke:#464646;stroke-width:5;stroke-linecap:butt;stroke-linejoin:miter;stroke-miterlimit:4;stroke-dasharray:none;stroke-opacity:.99019605;marker-start:url(#Arrow2Mstart)" id="path4282" d="m 136.86217,54.177465 -41.227925,0"/><path id="path5136" d="m 51.529959,140.46846 0,-45.542473" style="fill:none;fill-rule:evenodd;stroke:#464646;stroke-width:5;stroke-linecap:butt;stroke-linejoin:miter;stroke-miterlimit:4;stroke-dasharray:none;stroke-opacity:.99019605;marker-start:url(#marker5138)"/></svg>