<svg xmlns="http://www.w3.org/2000/svg" xmlns:svg="http://www.w3.org/2000/svg" id="svg4268" width="1058.203" height="1058.203" version="1.1" viewBox="0 0 1058.203 1058.203"><metadata id="metadata4274"/><defs id="defs4272"><marker id="marker5893" orient="auto" refX="0" refY="0" style="overflow:visible"><path id="path5895" d="M 5.77,0.0 L -2.88,5.0 L -2.88,-5.0 L 5.77,0.0 z" transform="scale(0.4)" style="fill-rule:evenodd;stroke:#464646;stroke-width:1pt;stroke-opacity:1;fill:#464646;fill-opacity:1"/></marker><marker id="marker5889" orient="auto" refX="0" refY="0" style="overflow:visible"><path id="path5891" d="M 5.77,0.0 L -2.88,5.0 L -2.88,-5.0 L 5.77,0.0 z" transform="scale(-0.4)" style="fill-rule:evenodd;stroke:#464646;stroke-width:1pt;stroke-opacity:1;fill:#464646;fill-opacity:1"/></marker><marker style="overflow:visible" id="TriangleOutM" orient="auto" refX="0" refY="0"><path style="fill-rule:evenodd;stroke:#464646;stroke-width:1pt;stroke-opacity:1;fill:#464646;fill-opacity:1" id="path5248" d="M 5.77,0.0 L -2.88,5.0 L -2.88,-5.0 L 5.77,0.0 z" transform="scale(0.4)"/></marker><marker style="overflow:visible" id="TriangleInM" orient="auto" refX="0" refY="0"><path style="fill-rule:evenodd;stroke:#464646;stroke-width:1pt;stroke-opacity:1;fill:#464646;fill-opacity:1" id="path5239" d="M 5.77,0.0 L -2.88,5.0 L -2.88,-5.0 L 5.77,0.0 z" transform="scale(-0.4)"/></marker><marker style="overflow:visible" id="TriangleOutL" orient="auto" refX="0" refY="0"><path style="fill-rule:evenodd;stroke:#000;stroke-width:1pt;stroke-opacity:1;fill:#000;fill-opacity:1" id="path5245" d="M 5.77,0.0 L -2.88,5.0 L -2.88,-5.0 L 5.77,0.0 z" transform="scale(0.8)"/></marker><marker style="overflow:visible" id="TriangleInL" orient="auto" refX="0" refY="0"><path style="fill-rule:evenodd;stroke:#000;stroke-width:1pt;stroke-opacity:1;fill:#000;fill-opacity:1" id="path5236" d="M 5.77,0.0 L -2.88,5.0 L -2.88,-5.0 L 5.77,0.0 z" transform="scale(-0.8)"/></marker><marker style="overflow:visible" id="marker5861" orient="auto" refX="0" refY="0"><path style="fill-rule:evenodd;stroke-width:.625;stroke-linejoin:round;stroke:#000;stroke-opacity:1;fill:#000;fill-opacity:1" id="path5863" d="M 8.7185878,4.0337352 L -2.2072895,0.016013256 L 8.7185884,-4.0017078 C 6.9730900,-1.6296469 6.9831476,1.6157441 8.7185878,4.0337352 z" transform="scale(1.1) translate(1,0)"/></marker><marker style="overflow:visible" id="Arrow2Lend" orient="auto" refX="0" refY="0"><path style="fill-rule:evenodd;stroke-width:.625;stroke-linejoin:round;stroke:#000;stroke-opacity:1;fill:#000;fill-opacity:1" id="path5124" d="M 8.7185878,4.0337352 L -2.2072895,0.016013256 L 8.7185884,-4.0017078 C 6.9730900,-1.6296469 6.9831476,1.6157441 8.7185878,4.0337352 z" transform="scale(1.1) rotate(180) translate(1,0)"/></marker><marker style="overflow:visible" id="marker5814" orient="auto" refX="0" refY="0"><path style="fill-rule:evenodd;stroke-width:.625;stroke-linejoin:round;stroke:#000;stroke-opacity:1;fill:#000;fill-opacity:1" id="path5121" d="M 8.7185878,4.0337352 L -2.2072895,0.016013256 L 8.7185884,-4.0017078 C 6.9730900,-1.6296469 6.9831476,1.6157441 8.7185878,4.0337352 z" transform="scale(1.1) translate(1,0)"/></marker><marker style="overflow:visible" id="marker5791" orient="auto" refX="0" refY="0"><path style="fill-rule:evenodd;stroke:#000;stroke-width:1pt" id="path5103" d="M 0.0,0.0 L 5.0,-5.0 L -12.5,0.0 L 5.0,5.0 L 0.0,0.0 z" transform="scale(0.8) translate(12.5,0)"/></marker><marker style="overflow:visible" id="marker5787" orient="auto" refX="0" refY="0"><path style="fill-rule:evenodd;stroke:#000;stroke-width:1pt" id="path5789" d="M -2.5,-0.80913858 C -2.5,1.9508614 -4.7400000,4.1908614 -7.5,4.1908614 L -7.5,-5.8091386 C -4.7400000,-5.8091386 -2.5,-3.5691386 -2.5,-0.80913858 z" transform="scale(0.6) translate(7.125493,0.763446)"/></marker><marker style="overflow:visible" id="marker5783" orient="auto" refX="0" refY="0"><path style="fill-rule:evenodd;stroke:#000;stroke-width:1pt" id="path5785" d="M -2.5,-0.80913858 C -2.5,1.9508614 -4.7400000,4.1908614 -7.5,4.1908614 L -7.5,-5.8091386 C -4.7400000,-5.8091386 -2.5,-3.5691386 -2.5,-0.80913858 z" transform="scale(0.6) translate(7.125493,0.763446)"/></marker><marker style="overflow:visible" id="SemiCircleIn" orient="auto" refX="0" refY="0"><path style="fill-rule:evenodd;stroke:#464646;stroke-width:1pt;stroke-opacity:1;fill:#464646;fill-opacity:.99215686" id="path5281" d="M -0.37450702,-0.045692580 C -0.37450702,2.7143074 1.8654930,4.9543074 4.6254930,4.9543074 L 4.6254930,-5.0456926 C 1.8654930,-5.0456926 -0.37450702,-2.8056926 -0.37450702,-0.045692580 z" transform="scale(0.6)"/></marker><marker style="overflow:visible" id="SemiCircleOut" orient="auto" refX="0" refY="0"><path style="fill-rule:evenodd;stroke:#464646;stroke-width:1pt;stroke-opacity:1;fill:#464646;fill-opacity:.99215686" id="path5284" d="M -2.5,-0.80913858 C -2.5,1.9508614 -4.7400000,4.1908614 -7.5,4.1908614 L -7.5,-5.8091386 C -4.7400000,-5.8091386 -2.5,-3.5691386 -2.5,-0.80913858 z" transform="scale(0.6) translate(7.125493,0.763446)"/></marker><marker style="overflow:visible" id="DiamondM" orient="auto" refX="0" refY="0"><path style="fill-rule:evenodd;stroke:#464646;stroke-width:1pt;stroke-opacity:1;fill:#464646;fill-opacity:.99215686" id="path5185" d="M 0,-7.0710768 L -7.0710894,0 L 0,7.0710589 L 7.0710462,0 L 0,-7.0710768 z" transform="scale(0.4)"/></marker><marker style="overflow:visible" id="DiamondMend" orient="auto" refX="0" refY="0"><path style="fill-rule:evenodd;stroke:#464646;stroke-width:1pt;stroke-opacity:1;fill:#464646;fill-opacity:.99215686" id="path5203" d="M 0,-7.0710768 L -7.0710894,0 L 0,7.0710589 L 7.0710462,0 L 0,-7.0710768 z" transform="scale(0.4) translate(-6.5,0)"/></marker><marker style="overflow:visible" id="marker5375" orient="auto" refX="0" refY="0"><path style="fill-rule:evenodd;stroke:#464646;stroke-width:1pt;stroke-opacity:1;fill:#464646;fill-opacity:.99215686" id="path5377" d="M -2.5,-1.0 C -2.5,1.7600000 -4.7400000,4.0 -7.5,4.0 C -10.260000,4.0 -12.5,1.7600000 -12.5,-1.0 C -12.5,-3.7600000 -10.260000,-6.0 -7.5,-6.0 C -4.7400000,-6.0 -2.5,-3.7600000 -2.5,-1.0 z" transform="scale(0.8) translate(7.4, 1)"/></marker><marker style="overflow:visible" id="DotL" orient="auto" refX="0" refY="0"><path style="fill-rule:evenodd;stroke:#464646;stroke-width:1pt;stroke-opacity:1;fill:#464646;fill-opacity:.99215686" id="path5164" d="M -2.5,-1.0 C -2.5,1.7600000 -4.7400000,4.0 -7.5,4.0 C -10.260000,4.0 -12.5,1.7600000 -12.5,-1.0 C -12.5,-3.7600000 -10.260000,-6.0 -7.5,-6.0 C -4.7400000,-6.0 -2.5,-3.7600000 -2.5,-1.0 z" transform="scale(0.8) translate(7.4, 1)"/></marker><marker id="marker4311" orient="auto" refX="0" refY="0" style="overflow:visible"><path id="path4313" d="M 5.77,0.0 L -2.88,5.0 L -2.88,-5.0 L 5.77,0.0 z" transform="scale(0.4)" style="fill-rule:evenodd;stroke:#464646;stroke-width:1pt;stroke-opacity:1;fill:#464646;fill-opacity:.99215686"/></marker><marker id="marker4307" orient="auto" refX="0" refY="0" style="overflow:visible"><path id="path4309" d="M 5.77,0.0 L -2.88,5.0 L -2.88,-5.0 L 5.77,0.0 z" transform="scale(-0.4)" style="fill-rule:evenodd;stroke:#464646;stroke-width:1pt;stroke-opacity:1;fill:#464646;fill-opacity:.99215686"/></marker><marker style="overflow:visible" id="marker4275" orient="auto" refX="0" refY="0"><path style="fill-rule:evenodd;stroke:#464646;stroke-width:1pt;stroke-opacity:1;fill:#464646;fill-opacity:.99215686" id="path4277" d="M 5.77,0.0 L -2.88,5.0 L -2.88,-5.0 L 5.77,0.0 z" transform="scale(0.4)"/></marker><marker style="overflow:visible" id="marker4257" orient="auto" refX="0" refY="0"><path style="fill-rule:evenodd;stroke:#464646;stroke-width:1pt;stroke-opacity:1;fill:#464646;fill-opacity:.99215686" id="path4259" d="M 5.77,0.0 L -2.88,5.0 L -2.88,-5.0 L 5.77,0.0 z" transform="scale(-0.4)"/></marker><marker id="marker5638" orient="auto" refX="0" refY="0" style="overflow:visible"><path id="path5640" d="M 5.77,0.0 L -2.88,5.0 L -2.88,-5.0 L 5.77,0.0 z" transform="scale(-0.8)" style="fill-rule:evenodd;stroke:#000;stroke-width:1pt;stroke-opacity:1;fill:#000;fill-opacity:1"/></marker><marker id="marker5628" orient="auto" refX="0" refY="0" style="overflow:visible"><path id="path5630" d="M -2.5,-1.0 C -2.5,1.7600000 -4.7400000,4.0 -7.5,4.0 C -10.260000,4.0 -12.5,1.7600000 -12.5,-1.0 C -12.5,-3.7600000 -10.260000,-6.0 -7.5,-6.0 C -4.7400000,-6.0 -2.5,-3.7600000 -2.5,-1.0 z" transform="scale(0.4) translate(7.4, 1)" style="fill-rule:evenodd;stroke:#000;stroke-width:1pt;stroke-opacity:1;fill:#000;fill-opacity:1"/></marker><marker style="overflow:visible" id="marker5182" orient="auto" refX="0" refY="0"><path style="fill:#464646;fill-opacity:.9901962;fill-rule:evenodd;stroke:#464646;stroke-width:.625;stroke-linejoin:round;stroke-opacity:.9901962" id="path5184" d="M 8.7185878,4.0337352 -2.2072895,0.01601326 8.7185884,-4.0017078 c -1.7454984,2.3720609 -1.7354408,5.6174519 -6e-7,8.035443 z" transform="scale(0.6,0.6)"/></marker><marker id="marker4314" orient="auto" refX="0" refY="0" style="overflow:visible"><path id="path4316" d="M 8.7185878,4.0337352 -2.2072895,0.01601326 8.7185884,-4.0017078 c -1.7454984,2.3720609 -1.7354408,5.6174519 -6e-7,8.035443 z" transform="scale(0.6,0.6)" style="fill:#464646;fill-opacity:.9901962;fill-rule:evenodd;stroke:#464646;stroke-width:.625;stroke-linejoin:round;stroke-opacity:.9901962"/></marker><marker style="overflow:visible" id="Arrow1Lstart" orient="auto" refX="0" refY="0"><path style="fill-rule:evenodd;stroke:#000;stroke-width:1pt" id="path4828" d="M 0,0 5,-5 -12.5,0 5,5 0,0 Z" transform="matrix(0.8,0,0,0.8,10,0)"/></marker><marker id="marker5138" orient="auto" refX="0" refY="0" style="overflow:visible"><path id="path5140" d="M 8.7185878,4.0337352 -2.2072895,0.01601326 8.7185884,-4.0017078 c -1.7454984,2.3720609 -1.7354408,5.6174519 -6e-7,8.035443 z" transform="scale(0.6,0.6)" style="fill:#464646;fill-opacity:.9901962;fill-rule:evenodd;stroke:#464646;stroke-width:.625;stroke-linejoin:round;stroke-opacity:.9901962"/></marker><marker style="overflow:visible" id="Arrow2Lstart" orient="auto" refX="0" refY="0"><path style="fill:#000;fill-opacity:1;fill-rule:evenodd;stroke:#000;stroke-width:.625;stroke-linejoin:round;stroke-opacity:1" id="path4846" d="M 8.7185878,4.0337352 -2.2072895,0.01601326 8.7185884,-4.0017078 c -1.7454984,2.3720609 -1.7354408,5.6174519 -6e-7,8.035443 z" transform="matrix(1.1,0,0,1.1,1.1,0)"/></marker><marker id="marker5182-7" orient="auto" refX="0" refY="0" style="overflow:visible"><path id="path5184-6" d="M 8.7185878,4.0337352 -2.2072895,0.01601326 8.7185884,-4.0017078 c -1.7454984,2.3720609 -1.7354408,5.6174519 -6e-7,8.035443 z" transform="scale(0.6,0.6)" style="fill:#464646;fill-opacity:.9901962;fill-rule:evenodd;stroke:#464646;stroke-width:.625;stroke-linejoin:round;stroke-opacity:.9901962"/></marker><marker style="overflow:visible" id="marker4314-6" orient="auto" refX="0" refY="0"><path style="fill:#464646;fill-opacity:.9901962;fill-rule:evenodd;stroke:#464646;stroke-width:.625;stroke-linejoin:round;stroke-opacity:.9901962" id="path4316-6" d="M 8.7185878,4.0337352 -2.2072895,0.01601326 8.7185884,-4.0017078 c -1.7454984,2.3720609 -1.7354408,5.6174519 -6e-7,8.035443 z" transform="scale(0.6,0.6)"/></marker><marker id="Arrow1Lstart-5" orient="auto" refX="0" refY="0" style="overflow:visible"><path id="path4828-5" d="M 0,0 5,-5 -12.5,0 5,5 0,0 Z" transform="matrix(0.8,0,0,0.8,10,0)" style="fill-rule:evenodd;stroke:#000;stroke-width:1pt;stroke-opacity:1;fill:#000;fill-opacity:1"/></marker><marker style="overflow:visible" id="marker5138-2" orient="auto" refX="0" refY="0"><path style="fill:#464646;fill-opacity:.9901962;fill-rule:evenodd;stroke:#464646;stroke-width:.625;stroke-linejoin:round;stroke-opacity:.9901962" id="path5140-6" d="M 8.7185878,4.0337352 -2.2072895,0.01601326 8.7185884,-4.0017078 c -1.7454984,2.3720609 -1.7354408,5.6174519 -6e-7,8.035443 z" transform="scale(0.6,0.6)"/></marker><marker id="Arrow2Lstart-8" orient="auto" refX="0" refY="0" style="overflow:visible"><path id="path4846-0" d="M 8.7185878,4.0337352 -2.2072895,0.01601326 8.7185884,-4.0017078 c -1.7454984,2.3720609 -1.7354408,5.6174519 -6e-7,8.035443 z" transform="matrix(1.1,0,0,1.1,1.1,0)" style="fill:#000;fill-opacity:1;fill-rule:evenodd;stroke:#000;stroke-width:.625;stroke-linejoin:round;stroke-opacity:1"/></marker></defs><rect id="rect4278" width="1019.955" height="1019.955" x="19.124" y="19.124" style="fill:none;stroke:#464646;stroke-width:38.2483139;stroke-linecap:butt;stroke-miterlimit:4;stroke-dasharray:none;stroke-opacity:.9901962"/><g id="g4216" transform="matrix(1.0418552,0,0,1.0418552,-1651.5409,-1254.2899)"><text style="font-style:normal;font-weight:400;font-size:680.36572266px;line-height:125%;font-family:sans-serif;letter-spacing:0;word-spacing:0;fill:#464646;fill-opacity:1;stroke:none;stroke-width:1px;stroke-linecap:butt;stroke-linejoin:miter;stroke-opacity:1" id="text5234-3" x="1635.311" y="1854.472" xml:space="preserve"><tspan id="tspan5236-6" x="1635.311" y="1854.472" style="font-style:normal;font-variant:normal;font-weight:400;font-stretch:normal;font-family:LilyUPC;-inkscape-font-specification:LilyUPC">U V</tspan></text></g><g style="stroke:#464646;fill-opacity:1;stroke-opacity:1;fill:#000" id="g5981"><path style="fill:#464646;fill-rule:evenodd;stroke:#464646;stroke-width:22.31899834;stroke-linecap:butt;stroke-linejoin:miter;stroke-miterlimit:4;stroke-dasharray:none;stroke-opacity:1;marker-start:url(#TriangleInM);marker-end:url(#TriangleOutM);fill-opacity:1" id="path5800" d="m 440.75493,506.65171 194.52872,0"/><path id="path5887" d="m 538.01929,409.38735 0,194.52872" style="fill:#464646;fill-rule:evenodd;stroke:#464646;stroke-width:22.31899834;stroke-linecap:butt;stroke-linejoin:miter;stroke-miterlimit:4;stroke-dasharray:none;stroke-opacity:1;marker-start:url(#marker5889);marker-end:url(#marker5893);fill-opacity:1"/></g></svg>