<svg xmlns="http://www.w3.org/2000/svg" xmlns:svg="http://www.w3.org/2000/svg" id="svg4268" width="166" height="166" version="1.1" viewBox="0 0 166 166"><metadata id="metadata4274"/><defs id="defs4272"><marker id="Arrow1Lstart" orient="auto" refX="0" refY="0" style="overflow:visible"><path id="path4828" d="M 0,0 5,-5 -12.5,0 5,5 0,0 Z" transform="matrix(0.8,0,0,0.8,10,0)" style="fill-rule:evenodd;stroke:#000;stroke-width:1pt"/></marker><marker style="overflow:visible" id="marker5138" orient="auto" refX="0" refY="0"><path style="fill:#464646;fill-opacity:.9901962;fill-rule:evenodd;stroke:#464646;stroke-width:.625;stroke-linejoin:round;stroke-opacity:.9901962" id="path5140" d="M 8.7185878,4.0337352 -2.2072895,0.01601326 8.7185884,-4.0017078 c -1.7454984,2.3720609 -1.7354408,5.6174519 -6e-7,8.035443 z" transform="scale(0.6,0.6)"/></marker><marker id="Arrow2Lstart" orient="auto" refX="0" refY="0" style="overflow:visible"><path id="path4846" d="M 8.7185878,4.0337352 -2.2072895,0.01601326 8.7185884,-4.0017078 c -1.7454984,2.3720609 -1.7354408,5.6174519 -6e-7,8.035443 z" transform="matrix(1.1,0,0,1.1,1.1,0)" style="fill:#000;fill-opacity:1;fill-rule:evenodd;stroke:#000;stroke-width:.625;stroke-linejoin:round;stroke-opacity:1"/></marker></defs><circle style="fill:#009bea;fill-opacity:1;fill-rule:nonzero;stroke:#0d3510;stroke-width:6.09999990000000025;stroke-linecap:round;stroke-linejoin:round;stroke-miterlimit:4;stroke-opacity:1;stroke-dasharray:none" id="path4314" cx="83" cy="81" r="53.932"/><rect style="fill:none;stroke:#0b2c0d;stroke-width:6;stroke-linecap:butt;stroke-miterlimit:4;stroke-dasharray:none;stroke-opacity:1" id="rect4278" width="160" height="160" x="3" y="3"/><flowRoot id="flowRoot4306" transform="matrix(1.2144004,0,0,1.2144004,19.839443,-17.273357)" xml:space="preserve" style="font-size:80px;font-style:normal;font-weight:400;line-height:125%;letter-spacing:0;word-spacing:0;fill:#0b2c0e;fill-opacity:1;stroke:none;font-family:sans-serif"><flowRegion id="flowRegion4308"><rect id="rect4310" width="256.372" height="202.634" x="26.367" y="42.796" style="font-size:80px;fill:#0b2c0e;fill-opacity:1;stroke:none"/></flowRegion><flowPara id="flowPara4312" style="font-size:60px;font-style:normal;font-variant:normal;font-weight:700;font-stretch:normal;fill:#0b2c0e;fill-opacity:1;stroke:none;font-family:Vani;-inkscape-font-specification:Vani Bold">O</flowPara></flowRoot></svg>