<svg xmlns="http://www.w3.org/2000/svg" xmlns:svg="http://www.w3.org/2000/svg" id="svg4268" width="166" height="166" version="1.1" viewBox="0 0 166 166"><metadata id="metadata4274"/><defs id="defs4272"><marker id="Arrow1Lstart" orient="auto" refX="0" refY="0" style="overflow:visible"><path id="path4828" d="M 0,0 5,-5 -12.5,0 5,5 0,0 Z" transform="matrix(0.8,0,0,0.8,10,0)" style="fill-rule:evenodd;stroke:#000;stroke-width:1pt"/></marker><marker style="overflow:visible" id="marker5138" orient="auto" refX="0" refY="0"><path style="fill:#464646;fill-opacity:.9901962;fill-rule:evenodd;stroke:#464646;stroke-width:.625;stroke-linejoin:round;stroke-opacity:.9901962" id="path5140" d="M 8.7185878,4.0337352 -2.2072895,0.01601326 8.7185884,-4.0017078 c -1.7454984,2.3720609 -1.7354408,5.6174519 -6e-7,8.035443 z" transform="scale(0.6,0.6)"/></marker><marker id="Arrow2Lstart" orient="auto" refX="0" refY="0" style="overflow:visible"><path id="path4846" d="M 8.7185878,4.0337352 -2.2072895,0.01601326 8.7185884,-4.0017078 c -1.7454984,2.3720609 -1.7354408,5.6174519 -6e-7,8.035443 z" transform="matrix(1.1,0,0,1.1,1.1,0)" style="fill:#000;fill-opacity:1;fill-rule:evenodd;stroke:#000;stroke-width:.625;stroke-linejoin:round;stroke-opacity:1"/></marker></defs><rect style="fill:none;stroke:#464646;stroke-width:6;stroke-linecap:butt;stroke-miterlimit:4;stroke-dasharray:none;stroke-opacity:.9901962" id="rect4278" width="160" height="160" x="3" y="3"/><flowRoot id="flowRoot4306" transform="translate(20.421875,11.961673)" xml:space="preserve" style="font-style:normal;font-weight:400;font-size:80px;line-height:125%;font-family:sans-serif;letter-spacing:0;word-spacing:0;fill:#464646;fill-opacity:.99215686;stroke:none;stroke-width:1px;stroke-linecap:butt;stroke-linejoin:miter;stroke-opacity:1"><flowRegion id="flowRegion4308"><rect id="rect4310" width="104.508" height="93.482" x="26.367" y="42.796" style="font-size:80px;fill:#464646;fill-opacity:.99215686"/></flowRegion><flowPara id="flowPara4312" style="font-style:normal;font-variant:normal;font-weight:400;font-stretch:normal;font-size:80px;font-family:Vani;-inkscape-font-specification:Vani;fill:#464646;fill-opacity:.99215686">M</flowPara></flowRoot><circle style="fill:#686868;fill-opacity:.36470588;fill-rule:nonzero;stroke:#464646;stroke-width:6.0999999;stroke-linecap:round;stroke-linejoin:round;stroke-miterlimit:4;stroke-dasharray:none;stroke-opacity:.99215686" id="path4314" cx="83" cy="83" r="53.932"/></svg>