<svg xmlns="http://www.w3.org/2000/svg" xmlns:svg="http://www.w3.org/2000/svg" id="svg4268" width="1058.203" height="1058.203" version="1.1" viewBox="0 0 1058.203 1058.203"><metadata id="metadata4274"/><defs id="defs4272"><marker id="marker5182" orient="auto" refX="0" refY="0" style="overflow:visible"><path id="path5184" d="M 8.7185878,4.0337352 -2.2072895,0.01601326 8.7185884,-4.0017078 c -1.7454984,2.3720609 -1.7354408,5.6174519 -6e-7,8.035443 z" transform="scale(0.6,0.6)" style="fill:#464646;fill-opacity:.9901962;fill-rule:evenodd;stroke:#464646;stroke-width:.625;stroke-linejoin:round;stroke-opacity:.9901962"/></marker><marker style="overflow:visible" id="marker4962" orient="auto" refX="0" refY="0"><path style="fill:#464646;fill-opacity:.9901962;fill-rule:evenodd;stroke:#464646;stroke-width:.625;stroke-linejoin:round;stroke-opacity:.9901962" id="path4964" d="M 8.7185878,4.0337352 -2.2072895,0.01601326 8.7185884,-4.0017078 c -1.7454984,2.3720609 -1.7354408,5.6174519 -6e-7,8.035443 z" transform="scale(0.6,0.6)"/></marker><marker style="overflow:visible" id="marker4314" orient="auto" refX="0" refY="0"><path style="fill:#464646;fill-opacity:.9901962;fill-rule:evenodd;stroke:#464646;stroke-width:.625;stroke-linejoin:round;stroke-opacity:.9901962" id="path4316" d="M 8.7185878,4.0337352 -2.2072895,0.01601326 8.7185884,-4.0017078 c -1.7454984,2.3720609 -1.7354408,5.6174519 -6e-7,8.035443 z" transform="scale(0.6,0.6)"/></marker><marker id="Arrow1Lstart" orient="auto" refX="0" refY="0" style="overflow:visible"><path id="path4828" d="M 0,0 5,-5 -12.5,0 5,5 0,0 Z" transform="matrix(0.8,0,0,0.8,10,0)" style="fill-rule:evenodd;stroke:#000;stroke-width:1pt"/></marker><marker style="overflow:visible" id="marker5138" orient="auto" refX="0" refY="0"><path style="fill:#464646;fill-opacity:.9901962;fill-rule:evenodd;stroke:#464646;stroke-width:.625;stroke-linejoin:round;stroke-opacity:.9901962" id="path5140" d="M 8.7185878,4.0337352 -2.2072895,0.01601326 8.7185884,-4.0017078 c -1.7454984,2.3720609 -1.7354408,5.6174519 -6e-7,8.035443 z" transform="scale(0.6,0.6)"/></marker><marker id="Arrow2Mstart" orient="auto" refX="0" refY="0" style="overflow:visible"><path id="path4852" d="M 8.7185878,4.0337352 -2.2072895,0.01601326 8.7185884,-4.0017078 c -1.7454984,2.3720609 -1.7354408,5.6174519 -6e-7,8.035443 z" transform="scale(0.6,0.6)" style="fill:#464646;fill-opacity:.9901962;fill-rule:evenodd;stroke:#464646;stroke-width:.625;stroke-linejoin:round;stroke-opacity:.9901962"/></marker><marker id="Arrow2Lstart" orient="auto" refX="0" refY="0" style="overflow:visible"><path id="path4846" d="M 8.7185878,4.0337352 -2.2072895,0.01601326 8.7185884,-4.0017078 c -1.7454984,2.3720609 -1.7354408,5.6174519 -6e-7,8.035443 z" transform="matrix(1.1,0,0,1.1,1.1,0)" style="fill:#000;fill-opacity:1;fill-rule:evenodd;stroke:#000;stroke-width:.625;stroke-linejoin:round;stroke-opacity:1"/></marker></defs><rect style="fill:none;stroke:#464646;stroke-width:38.2483139;stroke-linecap:butt;stroke-miterlimit:4;stroke-dasharray:none;stroke-opacity:.9901962" id="rect4278" width="1019.955" height="1019.955" x="19.124" y="19.124"/><path style="fill:none;fill-rule:evenodd;stroke:#464646;stroke-width:23.54996681;stroke-linecap:butt;stroke-linejoin:miter;stroke-miterlimit:4;stroke-dasharray:none;stroke-opacity:.9901962;marker-start:url(#Arrow2Mstart)" id="path4282" d="m 950.14202,509.60292 -194.18325,0"/><path id="path4312" d="m 94.153726,509.60292 194.183234,0" style="fill:none;fill-rule:evenodd;stroke:#464646;stroke-width:23.54996681;stroke-linecap:butt;stroke-linejoin:miter;stroke-miterlimit:4;stroke-dasharray:none;stroke-opacity:.9901962;marker-start:url(#marker4314)"/><path id="path4960" d="m 525.82038,956.11743 0,-194.18325" style="fill:none;fill-rule:evenodd;stroke:#464646;stroke-width:23.54996681;stroke-linecap:butt;stroke-linejoin:miter;stroke-miterlimit:4;stroke-dasharray:none;stroke-opacity:.9901962;marker-start:url(#marker4962)"/><path style="fill:none;fill-rule:evenodd;stroke:#464646;stroke-width:23.54996681;stroke-linecap:butt;stroke-linejoin:miter;stroke-miterlimit:4;stroke-dasharray:none;stroke-opacity:.9901962;marker-start:url(#marker5182)" id="path5176" d="m 525.82038,99.809766 0,194.183234"/><text style="font-style:normal;font-weight:400;font-size:611.465271px;line-height:125%;font-family:sans-serif;letter-spacing:0;word-spacing:0;fill:#464646;fill-opacity:1;stroke:none;stroke-width:1px;stroke-linecap:butt;stroke-linejoin:miter;stroke-opacity:1" id="text5234" x="280.141" y="655.615" xml:space="preserve"><tspan id="tspan5236" x="280.141" y="655.615" style="font-style:normal;font-variant:normal;font-weight:400;font-stretch:normal;font-family:LilyUPC;-inkscape-font-specification:LilyUPC">UV</tspan></text></svg>